<svg xmlns="http://www.w3.org/2000/svg" xmlns:xlink="http://www.w3.org/1999/xlink" version="1.1" width="1000" height="1000" viewBox="0 0 1000 1000" xml:space="preserve">
<desc>Created with Fabric.js 3.5.0</desc>
<defs>
</defs>
<rect x="0" y="0" width="100%" height="100%" fill="#ffffff"/>
<g transform="matrix(1.7755 0 0 1.7755 499.9885 499.99)" id="908226">
<path style="stroke: none; stroke-width: 1; stroke-dasharray: none; stroke-linecap: butt; stroke-dashoffset: 0; stroke-linejoin: miter; stroke-miterlimit: 4; is-custom-font: none; font-file-url: none; fill: rgb(61,194,255); fill-rule: nonzero; opacity: 1;" vector-effect="non-scaling-stroke" transform=" translate(-256.0279, -256)" d="M 505.8 233.4 l -105.4 -179.2 C 392.3 40.52 377.5 32 361.4 32 H 150.6 C 134.5 32 119.7 40.52 111.6 54.17 l -105.4 179.2 c -8.234 14 -8.234 31.27 0 45.27 l 105.4 179.2 C 119.7 471.5 134.5 480 150.6 480 h 210.8 c 16.12 0 30.94 -8.518 39.05 -22.17 l 105.4 -179.2 C 514.1 264.6 514.1 247.4 505.8 233.4 z M 351.1 280 h -72 V 352 c 0 13.2 -10.8 24 -23.1 24 c -13.2 0 -24 -10.8 -24 -24 V 280 H 159.1 C 146.8 280 135.1 269.2 135.1 256 c 0 -13.2 10.8 -24 24 -24 h 71.1 V 160 c 0 -13.2 10.8 -24 24 -24 c 13.2 0 23.1 10.8 23.1 24 v 72 h 72 c 13.2 0 23.1 10.8 23.1 24 C 375.1 269.2 365.2 280 351.1 280 z" stroke-linecap="round"/>
</g>
</svg>